<?xml version="1.0" standalone="no"?>
<!DOCTYPE svg PUBLIC "-//W3C//DTD SVG 20010904//EN"
 "http://www.w3.org/TR/2001/REC-SVG-20010904/DTD/svg10.dtd">
<svg version="1.0" xmlns="http://www.w3.org/2000/svg"
 width="170.000000pt" height="56.000000pt" viewBox="130 150 400.000000 180.000000"
 preserveAspectRatio="xMidYMid meet">

<g transform="translate(0.000000,500.000000) scale(0.100000,-0.100000)"
fill="#000000" stroke="none">
<path d="M1213 2881 c180 -32 330 -60 333 -63 7 -8 -287 -448 -299 -448 -6 0
-19 -7 -29 -17 -17 -15 -19 -15 -36 0 -10 10 -22 17 -27 17 -5 0 -17 -7 -27
-17 -17 -15 -19 -15 -36 0 -23 21 -41 21 -63 1 -17 -15 -20 -15 -43 0 -16 10
-46 16 -78 16 l-53 -1 70 -30 c50 -21 79 -29 101 -25 26 5 32 2 43 -20 8 -19
16 -24 29 -19 41 17 47 16 59 -16 9 -23 9 -37 1 -53 -10 -21 -10 -21 9 -1 31
31 636 698 652 718 13 16 -11 17 -460 16 l-474 -1 328 -57z"/>
<path d="M980 2768 c3 -3 37 -23 76 -46 l72 -40 63 12 64 12 -120 28 c-66 15
-129 30 -140 33 -11 3 -18 3 -15 1z"/>
<path d="M2720 2734 c-6 -14 -10 -71 -10 -127 0 -56 -4 -108 -9 -116 -6 -9
-42 -17 -102 -22 -51 -5 -93 -8 -94 -6 -2 1 -5 18 -9 38 l-6 37 57 6 c96 11
123 18 123 29 0 6 -30 8 -90 3 l-90 -7 0 54 c0 64 4 67 113 67 50 0 68 3 65
13 -3 8 -36 13 -106 15 l-101 3 -3 -135 -3 -134 -114 64 c-129 71 -128 59 -5
105 27 10 59 25 69 33 23 17 14 43 -20 56 -33 13 -145 13 -165 0 -9 -5 -19 -5
-26 1 -9 7 -15 5 -22 -8 -9 -16 -24 -18 -142 -15 -102 2 -131 -1 -128 -10 3
-7 27 -15 54 -18 l49 -5 -3 -85 c-2 -47 -5 -98 -8 -113 -5 -26 -3 -28 18 -25
22 3 23 7 29 105 3 57 7 104 10 106 2 3 32 7 66 10 l62 5 3 -106 c3 -92 5
-107 21 -110 14 -3 17 5 17 53 l0 56 30 -16 c17 -9 65 -38 107 -66 42 -27 83
-47 92 -45 9 3 68 10 131 17 83 8 115 8 118 0 2 -6 12 -11 23 -11 16 0 19 7
19 50 l0 50 37 -15 c21 -9 58 -29 84 -45 25 -17 58 -30 72 -30 48 0 19 27 -81
77 -54 26 -99 49 -101 51 -10 6 28 33 104 75 44 24 81 51 83 61 5 26 -18 19
-105 -34 l-83 -49 0 69 c0 72 -13 91 -30 44z m-356 -40 c9 -3 16 -10 16 -16 0
-12 -100 -56 -137 -60 -24 -3 -28 1 -31 23 -2 14 3 31 10 37 19 15 115 26 142
16z"/>
<path d="M3311 2747 c-5 -7 -12 -62 -13 -123 l-3 -109 -63 85 c-101 137 -112
150 -126 150 -10 0 -14 -37 -19 -157 -3 -87 -4 -160 -2 -162 2 -2 11 -1 20 2
12 5 15 26 15 117 0 60 4 110 8 110 5 0 46 -52 93 -115 88 -120 119 -142 119
-85 l0 29 36 -24 c29 -19 50 -25 93 -25 100 0 141 40 142 134 1 52 -2 62 -28
88 -57 57 -156 58 -215 2 l-28 -28 0 57 c0 58 -10 76 -29 54z m248 -103 c34
-28 41 -71 19 -119 -26 -58 -138 -76 -183 -30 -36 35 -35 108 2 147 23 24 35
28 79 28 42 0 59 -5 83 -26z"/>
<path d="M3860 2706 c0 -19 -53 -24 -172 -18 -86 4 -98 3 -98 -12 0 -13 10
-16 52 -16 l51 0 -6 -115 c-6 -108 -5 -115 12 -115 17 0 20 11 26 98 3 53 8
103 10 110 3 7 21 12 44 12 22 0 46 3 55 6 14 5 16 -8 16 -110 l0 -117 88 8
c97 9 158 8 215 -2 70 -13 207 50 207 95 0 19 -33 32 -178 70 -42 11 -43 12
-27 30 10 11 44 23 85 31 82 14 102 24 80 39 -16 11 -50 6 -122 -16 -58 -19
-98 -49 -98 -75 0 -23 17 -30 133 -54 51 -11 86 -23 84 -29 -1 -6 -27 -23 -57
-38 -62 -32 -134 -38 -148 -12 -7 12 -14 14 -28 7 -10 -6 -58 -13 -106 -16
l-88 -6 0 38 c0 39 0 39 48 45 106 14 122 18 122 28 0 7 -28 8 -85 4 l-84 -7
-7 26 c-7 30 3 77 19 87 7 4 45 8 85 8 57 0 72 3 72 15 0 12 -18 15 -100 15
-79 0 -100 -3 -100 -14z"/>
</g>
</svg>
